<svg version="1.0" xmlns="http://www.w3.org/2000/svg" width="125px" height="125px" viewBox="0 0 1250 1250" preserveAspectRatio="xMidYMid meet">
    <g id="layer101" fill="#fefefe" stroke="none">
        <path d="M323 1208 c-5 -7 -22 -34 -37 -60 l-27 -48 -69 0 c-83 0 -86 -3 -124 -130 -79 -262 -71 -530 25 -784 l20 -56 72 0 72 0 33 -55 c18 -30 37 -57 42 -60 17 -11 209 35 303 73 242 98 420 240 566 451 l51 74 -22 36 c-153 258 -463 480 -758 545 -116 25 -137 27 -147 14z m247 -124 c209 -72 399 -211 532 -388 67 -90 69 -75 -24 -193 -139 -176 -350 -315 -573 -376 -144 -40 -140 -40 -153 -11 -7 14 -12 26 -12 28 0 2 23 6 51 10 69 9 211 58 293 101 98 51 164 97 239 165 62 57 167 179 167 195 0 4 -22 35 -49 69 -135 169 -328 301 -535 365 -101 31 -110 29 -136 -26 -84 -179 -111 -388 -75 -588 8 -44 15 -81 15 -82 0 -2 -13 -3 -28 -3 -27 0 -29 3 -41 68 -32 168 -23 341 26 496 23 75 73 185 95 213 11 13 94 -4 208 -43z m-350 -67 c0 -2 -9 -29 -19 -60 -69 -199 -72 -506 -6 -663 l12 -30 79 7 c160 16 354 92 479 189 67 52 155 139 155 154 0 19 -138 149 -200 188 -78 50 -155 87 -229 113 -70 23 -78 31 -58 59 12 17 18 16 107 -18 95 -37 122 -51 220 -115 57 -37 214 -182 231 -213 8 -14 -4 -32 -63 -93 -122 -130 -261 -218 -425 -274 -78 -26 -219 -51 -289 -51 l-53 0 -21 67 c-66 215 -66 477 1 681 19 57 23 62 50 62 16 0 29 -2 29 -3z m267 -182 c38 -14 97 -42 133 -62 73 -39 200 -138 200 -155 0 -14 -74 -82 -138 -124 -60 -41 -176 -96 -240 -115 -52 -15 -55 -12 -74 71 -22 100 -10 354 19 403 7 12 30 8 100 -18z" />
    </g>
</svg>