<?xml version="1.0" standalone="no"?>
<!DOCTYPE svg PUBLIC "-//W3C//DTD SVG 20010904//EN"
 "http://www.w3.org/TR/2001/REC-SVG-20010904/DTD/svg10.dtd">
<svg version="1.0" xmlns="http://www.w3.org/2000/svg"
 width="114.000000pt" height="114.000000pt" viewBox="0 0 114.000000 114.000000"
 preserveAspectRatio="xMidYMid meet">
<metadata>
Created by potrace 1.11, written by Peter Selinger 2001-2013
</metadata>
<g transform="translate(0.000000,114.000000) scale(0.100000,-0.100000)"
fill="#000000" stroke="none">
<path d="M272 1070 c-36 -57 -37 -58 -82 -58 -94 1 -87 7 -119 -99 -74 -243
-72 -459 6 -686 17 -50 32 -77 42 -78 9 -1 39 -2 68 -3 28 -1 53 -3 55 -6 2
-3 12 -21 22 -40 38 -70 37 -70 129 -50 107 24 165 44 262 90 175 84 362 249
453 401 l23 39 -48 72 c-95 143 -256 281 -423 364 -71 35 -194 79 -250 89 -19
3 -50 10 -68 15 -33 9 -34 8 -70 -50z m142 -26 c201 -51 362 -140 498 -277 66
-66 148 -172 148 -191 0 -6 -29 -48 -64 -92 -140 -178 -352 -314 -576 -371 -8
-2 -32 -5 -54 -6 -37 -2 -40 0 -68 52 -101 186 -130 449 -72 654 4 11 15 17
35 17 28 0 30 -2 25 -27 -8 -34 -14 -68 -22 -108 -7 -39 -7 -189 1 -240 8 -54
42 -168 70 -232 28 -62 32 -63 141 -27 188 61 372 190 481 337 l35 47 -55 68
c-130 161 -317 280 -524 333 -42 10 -85 19 -95 19 -17 0 -18 2 -3 30 18 35 18
35 99 14z m-124 -98 c128 -14 281 -72 402 -152 80 -53 218 -188 218 -213 0
-26 -87 -117 -173 -182 -125 -94 -311 -179 -340 -156 -34 28 -27 43 31 62 75
23 183 77 246 122 74 53 156 134 156 153 0 21 -90 106 -172 161 -77 52 -184
102 -268 123 -77 20 -212 33 -209 20 2 -5 -3 -29 -10 -54 -47 -163 -46 -339 3
-510 13 -47 26 -91 28 -99 2 -8 -8 -14 -25 -16 -25 -3 -31 1 -44 33 -8 20 -16
43 -18 51 -2 9 -11 50 -20 91 -31 139 -22 337 21 490 28 96 19 92 174 76z
m145 -156 c107 -37 233 -115 303 -189 l24 -24 -44 -39 c-94 -84 -244 -167
-330 -183 -34 -6 -36 -5 -47 27 -13 40 -24 133 -24 208 0 102 25 220 47 220 7
0 39 -9 71 -20z"/>
</g>
</svg>
